<?xml version="1.0" encoding="UTF-8" standalone="no"?>
<svg
   viewBox="0 0 118.59 118.59"
   version="1.1"
   id="svg42"
   sodipodi:docname="ecommerce_icons_4.svg"
   inkscape:version="1.2 (1:1.2+202206011327+fc4e4096c5)"
   xmlns:inkscape="http://www.inkscape.org/namespaces/inkscape"
   xmlns:sodipodi="http://sodipodi.sourceforge.net/DTD/sodipodi-0.dtd"
   xmlns="http://www.w3.org/2000/svg"
   xmlns:svg="http://www.w3.org/2000/svg">
  <sodipodi:namedview
     id="namedview44"
     pagecolor="#ffffff"
     bordercolor="#666666"
     borderopacity="1.0"
     inkscape:showpageshadow="2"
     inkscape:pageopacity="0.0"
     inkscape:pagecheckerboard="0"
     inkscape:deskcolor="#d1d1d1"
     showgrid="false"
     inkscape:zoom="5.0980379"
     inkscape:cx="27.167315"
     inkscape:cy="51.490398"
     inkscape:window-width="1920"
     inkscape:window-height="1017"
     inkscape:window-x="0"
     inkscape:window-y="27"
     inkscape:window-maximized="1"
     inkscape:current-layer="Layer_1-2" />
  <defs
     id="defs4">
    <style
       id="style2">.cls-1,.cls-5{fill:#f7afa3;}.cls-1{opacity:0.15;}.cls-2{fill:#fff;}.cls-3{fill:#f5a8a0;}.cls-4{fill:#3e6177;}.cls-6{fill:#d5dfeb;}</style>
  </defs>
  <title
     id="title6">Asset 195</title>
  <g
     id="Layer_2"
     data-name="Layer 2">
    <g
       id="Layer_1-2"
       data-name="Layer 1">
      <rect
         class="cls-1"
         x="-14.21"
         y="34.29"
         width="147"
         height="50"
         rx="25"
         ry="25"
         transform="translate(-24.56 59.29) rotate(-45)"
         id="rect8"
         style="fill:#d6cbba;fill-opacity:1" />
      <path
         class="cls-2"
         d="M94.38,51.52c-.27,16.72-20.75,26-33.34,14.77-13.52-12-4.62-35.05,13.36-35C84.82,31.31,94.55,41,94.38,51.52Z"
         id="path10" />
      <path
         class="cls-3"
         d="M104.17,46.86q-.16-.86-.37-1.73C100.36,31.3,88.62,23,74.63,22.93,65,22.91,57.28,26,52.06,31.62c-4.42,4.71-7,11.16-7.49,18.93,0,.28,0,.56,0,.84s0,.56,0,.84c0,.08,0,.16,0,.25a1,1,0,0,0,0,.13v.33c0,5.68,3,14.54,8.13,25.24,2.33,4.52,5.15,9.53,8.16,14.55,3.66,6.19,7.65,12.37,11.65,18.07l.77,1,1.23,1.65.68-.85c.28-.35.55-.71.83-1.09q.25-.35.51-.72c4-5.83,8-11.84,11.73-18,3-5,5.7-10,8-14.52C101.11,68.55,106.17,57.92,104.17,46.86Zm-9.58,4.67c-.27,16.72-20.75,26-33.34,14.77-13.52-12-4.62-35.05,13.36-35C85,31.31,94.76,41,94.59,51.52Z"
         id="path12"
         style="fill:#d6cbba;fill-opacity:1" />
      <path
         class="cls-4"
         d="M89.69,115.29a6.16,6.16,0,1,1,6.16-6.16A6.17,6.17,0,0,1,89.69,115.29Zm0-9.32a3.16,3.16,0,1,0,3.16,3.16A3.16,3.16,0,0,0,89.69,106Z"
         id="path14" />
      <path
         class="cls-3"
         d="M37.51,74.29a6.16,6.16,0,1,1,6.16-6.16A6.17,6.17,0,0,1,37.51,74.29Zm0-9.32a3.16,3.16,0,1,0,3.16,3.16A3.16,3.16,0,0,0,37.51,65Z"
         id="path16"
         style="fill:#918a6f" />
      <circle
         class="cls-5"
         cx="70.82"
         cy="14.31"
         r="2.56"
         id="circle18"
         style="fill:#918a6f" />
      <circle
         class="cls-6"
         cx="94.12"
         cy="19.9"
         r="2.56"
         id="circle20" />
      <circle
         class="cls-6"
         cx="94.12"
         cy="96.32"
         r="2.56"
         id="circle22" />
      <path
         class="cls-4"
         d="M73.93,115.92l-3.17-4.23c-4.09-5.83-8.14-12.11-11.74-18.2-3.11-5.2-5.95-10.26-8.2-14.63-5.52-11.46-8.31-20.17-8.3-25.93V52.6c0-.05,0-.11,0-.16s0-.11,0-.17c0-.37,0-.66,0-.94s0-.41,0-.61v-.26c.46-8,3.19-14.87,7.89-19.87,5.61-6,13.76-9.16,23.57-9.16h.1c15.09,0,27.11,9.2,30.62,23.33.15.61.28,1.22.39,1.82h0c2.17,12-3.76,23.76-8.08,32.35-2.07,4-4.86,9.24-8.1,14.62-3.94,6.61-8.16,12.85-11.78,18.09-.17.25-.35.51-.53.76s-.57.77-.86,1.14l-.61.78Zm.14-91.49c-9,0-16.35,2.84-21.38,8.21-4.21,4.49-6.66,10.71-7.08,18l0,.27c0,.18,0,.36,0,.54s0,.54,0,.81v.67c0,5.23,2.75,13.73,8,24.59,2.2,4.28,5,9.28,8.09,14.43,3.56,6,7.57,12.24,11.59,18L74,111l.25-.35.49-.69c3.59-5.21,7.78-11.41,11.68-17.94,3.2-5.31,6-10.51,8-14.44,5.35-10.63,9.64-20.28,7.8-30.45q-.15-.82-.35-1.64c-3.17-12.76-14-21-27.72-21.05ZM73.66,72.7A21,21,0,0,1,54.23,43.77a21.25,21.25,0,0,1,19.86-14h.05A21.62,21.62,0,0,1,89.27,36.5a21.34,21.34,0,0,1,6.35,15A21.32,21.32,0,0,1,82.57,70.8,22.12,22.12,0,0,1,73.66,72.7Zm.43-39.91C64.91,32.79,59.26,39,57,44.84S54.9,59.06,61.78,65.18a18.15,18.15,0,0,0,19.58,2.87A18.35,18.35,0,0,0,92.62,51.5h0a18.32,18.32,0,0,0-5.49-12.9,18.61,18.61,0,0,0-13-5.81Z"
         id="path24" />
      <rect
         class="cls-2"
         x="81.02"
         y="81.5"
         width="13.05"
         height="2"
         transform="translate(-28.88 112.76) rotate(-57.87)"
         id="rect26" />
      <rect
         class="cls-2"
         x="78.8"
         y="90.97"
         width="5.59"
         height="2"
         transform="translate(-39.68 112.16) rotate(-57.87)"
         id="rect28" />
      <rect
         class="cls-2"
         x="77.69"
         y="95.71"
         width="1.86"
         height="2"
         transform="translate(-45.09 111.85) rotate(-57.87)"
         id="rect30" />
      <circle
         class="cls-2"
         cx="39.95"
         cy="31.2"
         r="26.91"
         id="circle32" />
      <circle
         class="cls-6"
         cx="40.89"
         cy="31.2"
         r="21.83"
         id="circle34" />
      <path
         class="cls-4"
         d="M40,54.54A23.33,23.33,0,1,1,63.29,31.2,23.36,23.36,0,0,1,40,54.54Zm0-43.66A20.33,20.33,0,1,0,60.29,31.2,20.35,20.35,0,0,0,40,10.87Z"
         id="path36" />
    </g>
  </g>
</svg>
