<?xml version="1.0" encoding="UTF-8" standalone="no"?>
<svg
   viewBox="0 0 299.65 401.31"
   version="1.1"
   id="svg1703"
   sodipodi:docname="gdpr_icons_6.svg"
   inkscape:version="1.2 (1:1.2+202206011327+fc4e4096c5)"
   xmlns:inkscape="http://www.inkscape.org/namespaces/inkscape"
   xmlns:sodipodi="http://sodipodi.sourceforge.net/DTD/sodipodi-0.dtd"
   xmlns="http://www.w3.org/2000/svg"
   xmlns:svg="http://www.w3.org/2000/svg">
  <sodipodi:namedview
     id="namedview1705"
     pagecolor="#ffffff"
     bordercolor="#666666"
     borderopacity="1.0"
     inkscape:showpageshadow="2"
     inkscape:pageopacity="0.0"
     inkscape:pagecheckerboard="0"
     inkscape:deskcolor="#d1d1d1"
     showgrid="false"
     inkscape:zoom="1.0652613"
     inkscape:cx="86.363789"
     inkscape:cy="212.62389"
     inkscape:window-width="1920"
     inkscape:window-height="1017"
     inkscape:window-x="0"
     inkscape:window-y="27"
     inkscape:window-maximized="1"
     inkscape:current-layer="Layer_1-2" />
  <defs
     id="defs1679">
    <style
       id="style1677">.cls-1{fill:#fbc907;}.cls-2{fill:#f3a70f;}.cls-3,.cls-4{fill:#426572;}.cls-4{font-size:85.7px;font-family:Dosis-ExtraBold, Dosis;font-weight:700;}.cls-5{fill:#fff;}</style>
  </defs>
  <title
     id="title1681">Asset 320</title>
  <g
     id="Layer_2"
     data-name="Layer 2">
    <g
       id="Layer_1-2"
       data-name="Layer 1">
      <path
         class="cls-1"
         d="M227.8,284.13H74.19A37.28,37.28,0,0,1,36.95,246.9V37.42A37.28,37.28,0,0,1,74.19.18H227.8A37.28,37.28,0,0,1,265,37.42V246.9A37.28,37.28,0,0,1,227.8,284.13ZM83.5,237.59h135V46.73H83.5Z"
         id="path1683"
         style="fill:#c8c4b7" />
      <path
         class="cls-2"
         d="M265.29,114.23v142A37.28,37.28,0,0,1,228,293.44H74.43a37.28,37.28,0,0,1-37.24-37.24v-142H83.74V246.9h135V114.23Z"
         id="path1685"
         style="fill:#aca793" />
      <path
         class="cls-3"
         d="M227.8,296H74.19a43.29,43.29,0,0,1-43.24-43.24V43.24A43.29,43.29,0,0,1,74.19,0H227.8A43.29,43.29,0,0,1,271,43.24V252.71A43.29,43.29,0,0,1,227.8,296ZM74.19,12A31.28,31.28,0,0,0,42.95,43.24V252.71A31.27,31.27,0,0,0,74.19,284H227.8A31.27,31.27,0,0,0,259,252.71V43.24A31.28,31.28,0,0,0,227.8,12Zm150.3,237.4H77.5V46.55h147Zm-135-12h123V58.55H89.5Z"
         id="path1687" />
      <rect
         class="cls-1"
         x="6"
         y="140.18"
         width="287.65"
         height="257.64"
         rx="12"
         ry="12"
         id="rect1689"
         style="fill:#c8c4b7" />
      <path
         class="cls-2"
         d="M296,153.92V384.8a13.42,13.42,0,0,1-13.38,13.38H154.49V140.54H282.61A13.42,13.42,0,0,1,296,153.92Z"
         id="path1691"
         style="fill:#918a6f" />
      <path
         class="cls-3"
         d="M281.65,401.31H18a18,18,0,0,1-18-18V149.67a18,18,0,0,1,18-18H281.65a18,18,0,0,1,18,18V383.31A18,18,0,0,1,281.65,401.31ZM18,143.67a6,6,0,0,0-6,6V383.31a6,6,0,0,0,6,6H281.65a6,6,0,0,0,6-6V149.67a6,6,0,0,0-6-6Z"
         id="path1693" />
      <path
         class="cls-5"
         d="M27.93,165.28H64.35c3.86,0,3.87-6,0-6H27.93c-3.86,0-3.87,6,0,6Z"
         id="path1697" />
      <path
         class="cls-5"
         d="M79.43,165.28h90.43c3.86,0,3.87-6,0-6H79.43c-3.86,0-3.87,6,0,6Z"
         id="path1699" />
    </g>
  </g>
</svg>
